<?xml version="1.0" encoding="UTF-8" standalone="no"?><!-- Generator: Gravit.io --><svg xmlns="http://www.w3.org/2000/svg" xmlns:xlink="http://www.w3.org/1999/xlink" style="isolation:isolate" viewBox="0 0 128 128" width="128pt" height="128pt"><path d=" M 81.471 113.15 C 79.173 106.476 76.087 100.712 73.143 97.143 C 56.5 79.071 51.357 57.643 60.571 46.857 C 69.786 36.071 87.857 37.786 92.571 48 C 97.286 58.214 93.545 68.661 85.714 70.857 Q 77.884 73.054 75.429 66.286 Q 88.357 62.464 84.571 53.714 C 80.786 44.964 67.929 47.893 65.143 56 C 62.357 64.107 67.786 83.179 84.571 81.143 Q 101.357 79.107 105.143 60.571 Q 107.429 64 113.143 64 Q 125.429 63.714 128 52.571 C 113.714 57.929 108.196 54.732 99.429 41.143 C 90.661 27.554 66.304 26.232 56 36.571 Q 45.696 46.911 45.714 62.857 Q 26.857 40.786 0 52.571 C 52.273 62.327 63.309 96.867 67.062 116.942 L 81.471 113.15 L 81.471 113.15 Z " fill="rgb(0,0,0)"/><circle vector-effect="non-scaling-stroke" cx="64" cy="64" r="55.428571428571416" fill="rgb(0,0,0)"/><clipPath id="_clipPath_pFJ9f8HyTDSbA7rPF2a3LP9pvVA8rcS6"><circle vector-effect="non-scaling-stroke" cx="64" cy="64" r="55.428571428571416" fill="rgb(0,0,0)"/></clipPath><g clip-path="url(#_clipPath_pFJ9f8HyTDSbA7rPF2a3LP9pvVA8rcS6)"><path d=" M 66.286 169.143 Q 71.321 142.549 68.571 125.714 C 65.821 108.879 60.857 63.929 0 52.571 Q 26.857 40.786 45.714 62.857 Q 45.696 46.911 56 36.571 C 66.304 26.232 90.661 27.554 99.429 41.143 C 108.196 54.732 113.714 57.929 128 52.571 Q 125.429 63.714 113.143 64 Q 107.429 64 105.143 60.571 Q 101.357 79.107 84.571 81.143 C 67.786 83.179 62.357 64.107 65.143 56 C 67.929 47.893 80.786 44.964 84.571 53.714 Q 88.357 62.464 75.429 66.286 Q 77.884 73.054 85.714 70.857 C 93.545 68.661 97.286 58.214 92.571 48 C 87.857 37.786 69.786 36.071 60.571 46.857 C 51.357 57.643 56.5 79.071 73.143 97.143 C 81.214 106.929 90.357 133.214 82.286 148.571 Q 74.214 163.929 66.286 169.143 Z " fill="rgb(255,255,255)"/></g></svg>